<svg width="496" height="496" viewBox="0 0 496 496" fill="none" xmlns="http://www.w3.org/2000/svg">
<path d="M211.353 111.901C211.673 118.95 211.673 118.95 205.028 118.98C196.308 119.02 196.458 119.011 195.978 110.187C195.517 101.725 194.7 93.281 193.384 84.6516C190.269 93.4987 187.244 102.379 183.993 111.176C182.704 114.664 182.673 119.103 176.738 119.023C171.076 118.947 171.1 114.748 169.859 111.395C166.658 102.748 163.634 94.0354 159.675 85.5071C158.991 94.4073 158.236 103.303 157.646 112.209C157.227 118.524 156.878 118.967 150.645 118.982C149.313 118.986 147.972 118.876 146.65 118.989C143.234 119.279 141.744 117.926 142.08 114.377C143.816 96.012 145.463 77.6381 147.177 59.2704C147.251 58.4705 147.479 57.5551 147.956 56.9444C150.438 53.77 163.114 55.5667 164.621 59.3553C168.003 67.8588 171.239 76.4204 174.571 84.9442C175.154 86.4366 175.322 88.1866 177.333 89.547C180.688 80.8804 183.996 72.3993 187.253 63.899C190.31 55.9225 195.524 53.3665 203.751 55.728C206.23 56.4395 206.498 58.2246 206.674 60.322C208.018 76.3802 209.402 92.4351 210.792 108.489C210.878 109.481 211.12 110.458 211.353 111.901Z" fill="#EBB12F"/>
<path d="M83.178 53.3137C86.3801 53.168 87.5704 54.4802 87.5645 57.1868C87.5224 76.4732 87.5089 95.7597 87.5132 115.046C87.5138 117.693 86.4062 119.309 83.6571 118.929C80.0402 118.428 76.0834 120.521 72.7725 117.281C71.5923 116.127 70.3822 117.816 69.2334 118.27C62.1074 121.087 55.1359 121.238 49.0152 116.162C42.1575 110.475 39.6999 102.932 41.6663 94.2309C43.5058 86.092 48.4774 80.6623 56.7181 78.6408C62.0809 77.3253 67.1469 79.1419 73.0517 81.2137C73.0517 74.6604 72.9964 68.7479 73.0638 62.8367C73.1855 52.1617 71.7764 53.3971 83.178 53.3137ZM59.7027 92.3615C59.0422 93.0957 58.1793 93.7294 57.7563 94.5814C55.9235 98.2731 55.7615 102.032 58.6759 105.194C61.6767 108.45 65.561 108.266 69.188 106.489C73.0593 104.593 73.5897 100.886 72.9507 97.0836C72.0462 91.7015 66.9153 89.686 59.7027 92.3615Z" fill="#37C5F0"/>
<path d="M20.3306 119.008C14.8332 119.001 9.83144 118.879 4.8377 119.027C1.48967 119.126 0.00464311 117.928 0.0202151 114.424C0.100919 96.2636 0.0829969 78.1026 0.000126915 59.9423C-0.0131561 57.0297 1.01426 55.5775 4.00087 55.584C13.4974 55.6046 22.9939 55.5949 32.4904 55.5697C35.3281 55.5622 36.8753 56.6984 36.6846 59.7511C36.5706 61.5767 36.5843 63.4186 36.6727 65.2468C36.8079 68.0456 35.4825 69.1091 32.7722 69.0559C28.4422 68.971 24.0996 69.2327 19.7798 69.0096C15.4132 68.7841 15.4832 71.5121 15.5174 74.5306C15.5523 77.6018 15.1318 80.7522 19.8658 80.5141C23.6876 80.3218 27.5297 80.5737 31.359 80.4778C34.5746 80.3972 35.9404 81.8197 35.6918 85.0031C35.5754 86.4934 35.5507 88.0126 35.698 89.4975C36.0521 93.0646 34.3809 94.1888 31.0063 94.0276C27.0173 93.837 23.0111 94.0332 19.0128 94.0014C14.6134 93.9664 15.6095 97.2551 15.5873 99.7134C15.5647 102.213 14.7249 105.451 19.0263 105.467C23.358 105.482 27.6926 105.601 32.0205 105.481C35.3952 105.387 36.9993 106.695 36.6975 110.182C36.5543 111.836 36.5923 113.516 36.6749 115.177C36.8118 117.933 35.591 119.088 32.8249 119.014C28.8293 118.908 24.8284 119 20.3306 119.008Z" fill="#37C5F0"/>
<path d="M377.667 91.0652C377.701 99.0172 377.582 106.518 377.794 114.009C377.896 117.591 376.831 119.409 373.014 119.008C371.696 118.869 370.336 118.858 369.021 119.01C365.047 119.47 363.709 117.714 363.892 113.837C364.135 108.685 364.055 103.508 363.903 98.3478C363.738 92.7298 361.138 89.7655 356.845 89.9127C352.482 90.0623 349.787 93.1899 349.705 98.42C349.62 103.916 349.579 109.417 349.699 114.912C349.766 117.936 348.486 118.9 345.547 119.039C335.191 119.526 335.198 119.619 335.207 109.479C335.221 92.8197 335.191 76.16 335.291 59.5011C335.304 57.3639 334.307 54.1561 337.441 53.6074C341.137 52.9602 345.142 52.4786 348.714 54.0763C350.308 54.7892 349.645 57.104 349.656 58.7176C349.706 66.2977 349.678 73.8783 349.678 81.7167C364.932 75.8723 374.964 79.248 377.667 91.0652Z" fill="#E0215A"/>
<path d="M260.402 97.6419C260.383 103.637 260.306 109.134 260.363 114.629C260.397 117.799 259.018 119.297 255.832 118.966C252.073 118.576 247.839 120.516 245.009 116.615C233.811 122.225 224.612 120.807 218.377 112.672C212.007 104.361 212.451 92.4894 219.428 84.5661C225.025 78.2095 233.597 76.5139 242.268 80.1226C243.915 80.8082 244.934 81.0728 246.97 80.0217C250.299 78.3021 254.467 79.1313 258.242 79.6252C260.352 79.9013 260.286 82.0115 260.316 83.6532C260.398 88.1486 260.379 92.6458 260.402 97.6419ZM239.342 90.9804C232.527 90.9121 228.498 94.4618 229.037 100.06C229.532 105.207 233.956 108.347 239.459 107.427C243.204 106.8 245.378 104.5 245.918 100.822C246.614 96.082 244.733 92.7389 239.342 90.9804Z" fill="#EBB12F"/>
<path d="M137.685 86.7143C137.684 92.5314 137.733 97.8569 137.667 103.181C137.556 112.155 133.303 117.648 124.566 119.43C119.011 120.563 113.281 120.604 107.723 119.323C99.6132 117.454 95.4259 112.495 95.09 104.191C94.8077 97.2136 95.0662 90.2157 94.9849 83.228C94.9531 80.5002 96.0988 79.4975 98.8256 79.3029C109.302 78.5553 109.479 78.6579 109.492 89.0598C109.498 93.3851 109.522 97.7131 109.683 102.035C109.843 106.32 112.34 108.278 116.488 108.294C120.48 108.308 122.826 106.263 123.018 102.309C123.293 96.6628 123.43 90.9989 123.319 85.3485C123.233 81.0062 124.618 78.6151 129.358 79.3257C129.846 79.3989 130.355 79.3331 130.854 79.3332C137.604 79.3351 137.604 79.3352 137.685 86.7143Z" fill="#33B57F"/>
<path d="M268.766 79.2032C272.217 76.8648 270.883 73.5764 270.837 70.7978C270.773 66.9017 271.726 64.711 276.081 65.1588C277.384 65.2928 278.734 64.9915 280.06 64.8665C283.42 64.5497 285.085 65.8899 284.761 69.4342C284.61 71.0862 284.829 72.7695 284.722 74.4285C284.518 77.6023 285.382 79.6968 289.106 79.3421C292.456 79.023 293.582 80.858 293.384 83.8908C293.185 86.9322 294.059 90.79 289.089 90.6608C285.444 90.566 284.449 92.3707 284.714 95.6137C284.93 98.2615 284.81 100.943 285.132 103.573C285.329 105.186 285.852 107.167 287.993 107.102C294.721 106.895 293.286 112.823 293.875 116.028C294.532 119.601 290.124 119.529 287.557 119.842C276.509 121.188 271.069 116.17 270.961 104.855C270.935 102.189 270.924 99.5233 270.957 96.8582C270.994 93.8061 271.275 91.0928 266.921 90.2097C263.647 89.5457 265.324 86.0073 265.065 83.7131C264.796 81.3381 265.343 79.3295 268.766 79.2032Z" fill="#E0215A"/>
<path d="M316.591 90.8693C311.428 93.9621 309.762 97.7748 311.383 102.11C313.23 107.051 317.188 109.141 323.044 107.719C328.92 106.292 328.423 111.497 329.879 114.23C331.615 117.489 328.239 118.03 326.241 118.743C310.18 124.465 294.698 113.195 295.967 96.7849C297.065 82.5831 316.402 72.9857 328.529 80.5707C330.568 81.8462 330.879 83.4704 329.62 85.1391C327.957 87.3419 328.615 92.137 323.724 90.9376C321.439 90.3772 319.24 89.6003 316.591 90.8693Z" fill="#E0215A"/>
</svg>
