<svg width="175" height="175" viewBox="0 0 175 175" fill="none" xmlns="http://www.w3.org/2000/svg">
<path d="M139.685 97.8445C139.577 95.5445 140.593 93.7458 142.404 92.4876C143.358 91.8242 143.609 91.1237 143.601 90.0439C143.557 84.223 143.58 78.4016 143.58 72.3125C140.535 73.5729 137.683 74.7015 134.896 75.9717C134.541 76.1335 134.374 77.0345 134.372 77.5941C134.343 84.2402 134.362 90.8865 134.187 97.7015C132.153 97.8579 130.299 97.8456 128.407 97.7113C128.368 91.343 128.368 85.0968 128.368 78.6493C127.575 78.9465 127.039 79.1303 126.516 79.3457C114.174 84.4288 101.837 89.5219 89.4853 94.582C88.8612 94.8377 88.1227 94.8142 87.458 94.7537C87.5093 92.6007 87.5399 90.6147 87.6983 88.6103C88.0513 88.539 88.2885 88.5154 88.5001 88.4289C107.621 80.6105 126.74 72.788 145.857 64.9592C146.268 64.791 146.647 64.5464 147.191 64.2579C146.571 63.9915 146.147 63.8032 145.719 63.6267C131.026 57.5734 116.338 51.5075 101.636 45.477C96.9616 43.5597 92.2486 41.7368 87.547 39.709C87.5356 37.5572 87.5305 35.5673 87.5254 33.5773C88.001 33.6191 88.524 33.5457 88.9454 33.7192C113.464 43.8101 137.973 53.9214 162.483 64.0322C162.589 64.0757 162.686 64.1403 162.983 64.3014C162.375 64.5899 161.895 64.846 161.395 65.0501C157.894 66.4774 154.399 67.919 150.879 69.2962C150.004 69.6387 149.617 70.0703 149.624 71.066C149.667 77.5924 149.624 84.1195 149.685 90.6456C149.69 91.2125 150.106 91.957 150.568 92.3059C152.349 93.6511 153.404 95.35 153.434 97.7211C151.391 97.8577 149.521 97.8471 147.569 97.7564C146.763 96.8003 146.149 97.1209 145.412 97.864C143.395 97.8633 141.54 97.8539 139.685 97.8445Z" fill="#31B77E"/>
<path d="M87.393 33.5941C87.5305 35.5673 87.5356 37.5572 87.4474 39.7903C67.8347 48.0728 48.3154 56.1122 28.4054 64.3125C31.9016 65.7527 34.9569 67.0141 38.0143 68.2702C54.5328 75.0571 71.0518 81.8427 87.5706 88.6287C87.54 90.6147 87.5093 92.6007 87.3303 94.7328C74.0453 89.511 60.9086 84.1432 47.495 78.6621C47.495 84.7105 47.495 90.4756 47.3385 96.2262C45.287 96.2356 43.3921 96.2594 41.4971 96.2831C41.5388 90.1605 41.5515 84.0374 41.6469 77.9157C41.6658 76.7056 41.3519 76.0751 40.151 75.5931C31.8284 72.2527 23.5424 68.8211 15.2467 65.414C14.5067 65.1101 13.7807 64.772 12.6514 64.2752C37.7752 53.9493 62.5179 43.7801 87.393 33.5941Z" fill="#3AC6F0"/>
<path d="M41.4767 96.445C43.392 96.2594 45.287 96.2356 47.3584 96.3909C47.4963 101.981 47.5197 107.394 47.3781 112.803C47.3397 114.269 47.831 114.79 49.1813 115.153C62.1923 118.646 75.3464 121.151 88.8894 121.338C88.8912 123.368 88.8839 125.239 88.7565 127.159C85.791 127.093 82.9398 127.059 80.1014 126.849C69.5045 126.067 59.1464 123.917 48.8753 121.288C48.4101 121.169 47.9268 121.12 47.2933 121.012C47.2933 123.285 47.4551 125.336 47.246 127.349C47.0518 129.219 47.8351 129.798 49.4985 130.236C62.4249 133.636 75.4748 136.155 88.9093 136.356C88.9131 138.36 88.9128 140.203 88.9126 142.046C81.0757 142.262 73.3382 141.347 65.6397 139.995C57.4401 138.554 49.3589 136.637 41.4562 134.043C41.4562 121.509 41.4562 109.058 41.4767 96.445Z" fill="#E0255D"/>
<path d="M88.8767 127.111C88.8839 125.239 88.8911 123.368 89.0518 121.316C102.212 120.871 114.815 118.274 127.24 114.606C128.273 114.301 128.423 113.768 128.42 112.851C128.402 107.846 128.432 102.839 128.446 97.8334C130.299 97.8456 132.153 97.8579 134.164 97.8536C134.347 109.372 134.386 120.907 134.353 132.442C134.351 132.936 133.773 133.752 133.318 133.872C125.457 135.955 117.645 138.333 109.672 139.85C102.96 141.128 96.0541 141.384 89.0733 142.069C88.9128 140.203 88.9131 138.36 89.0699 136.33C93.4604 135.807 97.7114 135.612 101.924 135.103C110.55 134.06 118.983 132.062 127.281 129.501C127.721 129.365 128.343 128.831 128.357 128.463C128.452 125.924 128.407 123.379 128.407 120.882C128.086 120.815 127.962 120.748 127.863 120.775C125.952 121.278 124.053 121.829 122.134 122.299C111.205 124.982 100.209 127.211 88.8767 127.111Z" fill="#ECB331"/>
<path d="M139.648 97.9953C141.54 97.8539 143.395 97.8633 145.42 98.0274C145.161 102.268 144.734 106.355 144.302 110.479C145.9 110.479 147.325 110.479 148.884 110.479C148.464 106.176 148.057 102.006 147.65 97.8365C149.521 97.8471 151.391 97.8577 153.42 97.8515C154.25 103.964 154.923 110.094 155.611 116.37C149.583 116.37 143.689 116.37 137.589 116.37C138.268 110.25 138.939 104.198 139.648 97.9953Z" fill="#ECB332"/>
</svg>
